<svg xmlns="http://www.w3.org/2000/svg" viewBox="0 0 629.58 35.4">
  <g id="Layer_2" data-name="Layer 2">
    <g id="Layer_1-2" data-name="Layer 1">
      <path d="M58.15,5.14V22.53H5V5.14H58.15m5-5H0V27.53H63.15V.14Z"/>
      <path d="M65.76,12.75V30.14H12.61V12.75H65.76m5-5H7.61V35.14H70.76V7.75Z"/>
      <path d="M91.68,34.82V.61H98.5l8.1,24.22c.74,2.26,1.29,4,1.63,5.07q.58-1.87,1.82-5.49L118.24.61h6.09V34.82H120V6.19L110,34.82h-4.09L96.05,5.7V34.82Z"/>
      <path d="M133.13,18.16q0-8.52,4.57-13.34A15.57,15.57,0,0,1,149.51,0a16.44,16.44,0,0,1,8.54,2.26,14.78,14.78,0,0,1,5.8,6.32,20.5,20.5,0,0,1,2,9.18,20.16,20.16,0,0,1-2.1,9.31,14.38,14.38,0,0,1-5.95,6.22,17,17,0,0,1-8.31,2.11,16.17,16.17,0,0,1-8.64-2.33,15.1,15.1,0,0,1-5.76-6.37A19.26,19.26,0,0,1,133.13,18.16Zm4.67.07q0,6.18,3.32,9.74a11.61,11.61,0,0,0,16.76,0q3.3-3.6,3.3-10.2a17.57,17.57,0,0,0-1.41-7.3,10.93,10.93,0,0,0-4.13-4.83,11.22,11.22,0,0,0-6.1-1.71,11.59,11.59,0,0,0-8.28,3.3Q137.79,10.5,137.8,18.23Z"/>
      <path d="M173.17,18.16q0-8.52,4.58-13.34A15.56,15.56,0,0,1,189.56,0a16.49,16.49,0,0,1,8.54,2.26,14.84,14.84,0,0,1,5.8,6.32,20.5,20.5,0,0,1,2,9.18,20.16,20.16,0,0,1-2.1,9.31,14.32,14.32,0,0,1-5.95,6.22,17,17,0,0,1-8.31,2.11,16.11,16.11,0,0,1-8.63-2.33,15.06,15.06,0,0,1-5.77-6.37A19.4,19.4,0,0,1,173.17,18.16Zm4.67.07q0,6.18,3.33,9.74a11.6,11.6,0,0,0,16.75,0q3.3-3.6,3.31-10.2a17.57,17.57,0,0,0-1.42-7.3,10.86,10.86,0,0,0-4.13-4.83,11.2,11.2,0,0,0-6.1-1.71,11.56,11.56,0,0,0-8.27,3.3Q177.85,10.5,177.84,18.23Z"/>
      <path d="M214.6,34.82V.61h11.78a28.36,28.36,0,0,1,6.09.49,11.64,11.64,0,0,1,5,2.45,14,14,0,0,1,4,5.84,23.12,23.12,0,0,1,1.34,8.14,23.85,23.85,0,0,1-.91,6.91,17,17,0,0,1-2.33,5,12.38,12.38,0,0,1-3.12,3.1,12.65,12.65,0,0,1-4.08,1.72,23.33,23.33,0,0,1-5.5.58Zm4.52-4h7.31a17.79,17.79,0,0,0,5.31-.63,7.7,7.7,0,0,0,3.07-1.77,10.72,10.72,0,0,0,2.5-4.33,21.11,21.11,0,0,0,.9-6.59c0-3.58-.58-6.33-1.76-8.25a8.9,8.9,0,0,0-4.28-3.87,17.89,17.89,0,0,0-5.86-.7h-7.19Z"/>
      <path d="M251.79,34.82V.61h12.84a15.77,15.77,0,0,1,6.29,1,8.07,8.07,0,0,1,3.71,3.19A8.49,8.49,0,0,1,276,9.36a7.79,7.79,0,0,1-1.19,4.13,8.54,8.54,0,0,1-3.59,3.13,8.89,8.89,0,0,1,4.77,3.1,8.32,8.32,0,0,1,1.67,5.18,10,10,0,0,1-1,4.47,8.56,8.56,0,0,1-2.51,3.19,10.5,10.5,0,0,1-3.74,1.69,22.84,22.84,0,0,1-5.52.57ZM256.32,15h7.4a16.84,16.84,0,0,0,4.32-.39,4.8,4.8,0,0,0,2.6-1.71,4.92,4.92,0,0,0,.87-3,5.52,5.52,0,0,0-.81-3,4.16,4.16,0,0,0-2.34-1.78,19.38,19.38,0,0,0-5.2-.48h-6.84Zm0,15.8h8.52a19.59,19.59,0,0,0,3.08-.16,7.55,7.55,0,0,0,2.61-.93,5,5,0,0,0,1.73-1.91,6,6,0,0,0,.68-2.88,5.7,5.7,0,0,0-1-3.32,5.15,5.15,0,0,0-2.72-2,16.93,16.93,0,0,0-5-.57h-7.91Z"/>
      <path d="M285.35,18.16q0-8.52,4.57-13.34A15.57,15.57,0,0,1,301.73,0a16.44,16.44,0,0,1,8.54,2.26,14.78,14.78,0,0,1,5.8,6.32,20.5,20.5,0,0,1,2,9.18,20.16,20.16,0,0,1-2.1,9.31,14.38,14.38,0,0,1-6,6.22,17,17,0,0,1-8.31,2.11,16.17,16.17,0,0,1-8.64-2.33,15.1,15.1,0,0,1-5.76-6.37A19.26,19.26,0,0,1,285.35,18.16Zm4.67.07q0,6.18,3.32,9.74a11.61,11.61,0,0,0,16.76,0q3.3-3.6,3.3-10.2a17.57,17.57,0,0,0-1.41-7.3,10.93,10.93,0,0,0-4.13-4.83,11.22,11.22,0,0,0-6.1-1.71,11.59,11.59,0,0,0-8.28,3.3Q290,10.5,290,18.23Z"/>
      <path d="M323,34.82,336.15.61H341l14,34.21h-5.15l-4-10.36H331.58l-3.76,10.36Zm9.88-14h11.6l-3.58-9.47Q339.29,7,338.49,4.2a43.83,43.83,0,0,1-1.85,6.54Z"/>
      <path d="M361.59,34.82V.61h15.17a20,20,0,0,1,6.95.92,7.58,7.58,0,0,1,3.81,3.26,9.67,9.67,0,0,1,1.42,5.15,8.61,8.61,0,0,1-2.36,6.14c-1.57,1.67-4,2.72-7.28,3.17A11.78,11.78,0,0,1,382,21a23.43,23.43,0,0,1,3.76,4.55l5.95,9.31h-5.69l-4.53-7.12q-2-3.07-3.27-4.71A10.19,10.19,0,0,0,376,20.7a6.81,6.81,0,0,0-2.06-.91,13.67,13.67,0,0,0-2.52-.16h-5.25V34.82Zm4.53-19.11h9.73a14.45,14.45,0,0,0,4.85-.65A5.09,5.09,0,0,0,383.36,13a5.52,5.52,0,0,0,.91-3.07,5.07,5.07,0,0,0-1.76-4c-1.17-1-3-1.56-5.56-1.56H366.12Z"/>
      <path d="M398.9,34.82V.61h11.79a28.36,28.36,0,0,1,6.09.49,11.64,11.64,0,0,1,5,2.45,14,14,0,0,1,4.05,5.84,23.12,23.12,0,0,1,1.34,8.14,24.2,24.2,0,0,1-.91,6.91,17.2,17.2,0,0,1-2.33,5,12.38,12.38,0,0,1-3.12,3.1,12.65,12.65,0,0,1-4.08,1.72,23.33,23.33,0,0,1-5.5.58Zm4.53-4h7.31a17.67,17.67,0,0,0,5.3-.63,7.56,7.56,0,0,0,3.07-1.77,10.73,10.73,0,0,0,2.51-4.33,21.11,21.11,0,0,0,.9-6.59q0-5.37-1.76-8.25a9,9,0,0,0-4.28-3.87,17.94,17.94,0,0,0-5.86-.7h-7.19Z"/>
      <path d="M452.29,34.82V.61h6.82l8.1,24.22c.74,2.26,1.29,4,1.63,5.07q.59-1.87,1.82-5.49L478.85.61h6.09V34.82h-4.36V6.19l-9.94,28.63h-4.09L456.66,5.7V34.82Z"/>
      <path d="M491.36,34.82,504.5.61h4.87l14,34.21h-5.16l-4-10.36H499.92l-3.75,10.36Zm9.87-14h11.6l-3.57-9.47Q507.63,7,506.83,4.2A43.78,43.78,0,0,1,505,10.74Z"/>
      <path d="M529.68,34.82V.61h4.52v17l17-17h6.14L543,14.47l15,20.35h-6L539.8,17.5,534.2,23V34.82Z"/>
      <path d="M564.7,34.82V.61h24.74v4H569.23V15.12h18.93v4H569.23V30.78h21v4Z"/>
      <path d="M599.43,34.82V.61H614.6a20,20,0,0,1,6.95.92,7.58,7.58,0,0,1,3.81,3.26,9.67,9.67,0,0,1,1.42,5.15,8.61,8.61,0,0,1-2.36,6.14c-1.57,1.67-4,2.72-7.28,3.17A11.78,11.78,0,0,1,619.87,21a23.43,23.43,0,0,1,3.76,4.55l6,9.31h-5.69l-4.53-7.12q-2-3.07-3.27-4.71a10.19,10.19,0,0,0-2.3-2.29,6.81,6.81,0,0,0-2.06-.91,13.67,13.67,0,0,0-2.52-.16H604V34.82ZM604,15.71h9.73a14.49,14.49,0,0,0,4.85-.65A5.09,5.09,0,0,0,621.2,13a5.52,5.52,0,0,0,.91-3.07,5.07,5.07,0,0,0-1.76-4q-1.76-1.56-5.57-1.56H604Z"/>
    </g>
  </g>
</svg>